#!OML:ASF E:/inclinewalkrobotboard/Project1/Captureday1/Session1/subject1.ASF
:FULLY-SPECIFIED
:DEGREES
126
root 0 0 0 -3.9038754953239243 -2.1492954012012575 -4.615680726920238
lowerback 11.757681449531125 -0.22557601547139472 2.642608034248145
upperback 0.48715828375623715 0.19457305093048105 2.473715567983236
thorax -6.127918807220506 0.06039162461179903 1.069984489827187
lowerneck -15.71379962853938 -2.8843802125519002 -1.3451440422877483
upperneck 21.915099361856523 -3.603081590497803 -0.18459580731350544
head 9.645527077741988 -1.80928888771956 -0.29128605418182557
rclavicle 2.0938894193445243E-15 -3.5968477512979875E-15
rhumerus -31.813827760115302 -22.951873133680586 -76.7886363170543
rradius 24.996966495154616
rwrist 3.8821910383684317
rhand -18.442959751305416 22.849322045568105
rfingers 7.125020000000021
rthumb 7.843958828232293 -7.037781568576406
lclavicle -1.2584324489575043E-15 -3.504816468975352E-15
lhumerus -33.46295125126525 -1.8112460419209546 84.45921278604591
lradius 28.99383853094914
lwrist 6.638406771752887
lhand -27.363546234301786 23.588483285477473
lfingers 7.125020000000025
lthumb -0.7612584821189694 53.569150716792365
rfemur -12.982931432925964 6.954806402660514 29.159109672580808
rtibia 30.290735189460328
rfoot -13.776897664691612 -6.711355693127874
rtoes 10.600713201503568
lfemur -23.180842700115686 5.542358338351178 -15.115763200334316
ltibia 67.64262679000677
lfoot 0.09205392476195406 -9.029094704423231
ltoes -0.5090072167194002
127
root 0 0 0 -3.2153985537284013 -3.422368064600262 -5.796652075587527
lowerback 11.058499277741447 0.6764325054045771 4.463155061451753
upperback 0.013131389240684521 1.6076586986071963 2.3119018556563393
thorax -6.157005445018749 0.7088070926724956 -0.33557058257061867
lowerneck -16.850565517574132 -3.1852677064172905 -1.3608064351794824
upperneck 23.58648109122698 -4.1344408549611495 -0.06115699057753998
head 10.449608732960671 -1.9987698083990313 -0.3413444011090439
rclavicle 8.696280494002312E-16 -1.5215246372429967E-16
rhumerus -31.247683167359277 -21.827664009054267 -77.06368108409548
rradius 26.24984505329106
rwrist 2.861351882096945
rhand -18.661377607413616 23.00378843271852
rfingers 7.1250200000000214
rthumb 7.6304673040549 -6.877796912537885
lclavicle -2.402825443516579E-15 1.297820361005135E-16
lhumerus -33.96073541496594 -1.564993930481564 84.57757331224596
lradius 28.798158837048007
lwrist 6.696274279233474
lhand -27.3222622004187 23.595956776181993
lfingers 7.125020000000024
lthumb -0.7225476949832244 53.5736548625994
rfemur -5.035281393246364 7.951815727626226 34.24947329467416
rtibia 31.605918228037496
rfoot -19.359173201442882 -7.159387896781613
rtoes 9.338769031144771
lfemur -23.81702600737507 5.581513077466001 -14.883838953080824
ltibia 66.95399288464183
lfoot -0.4971757915167032 -8.27770435659759
ltoes -0.21467128103828514
128
root 0 0 0 -2.2841178792817702 -4.468990552701847 -6.766943814346915
lowerback 11.270764792378376 1.4218948961666753 5.911638261592983
upperback 0.18026969674758664 2.7715854002395925 2.308345536349127
thorax -5.983185324094049 1.2468229183144302 -1.326990702605169
lowerneck -17.365853678094126 -3.496372815268286 -1.4354362297736913
upperneck 23.196612650344626 -4.5422549303638124 0.026882874952357527
head 10.409250266536645 -2.1839449925529744 -0.3579565684167955
rclavicle 5.202759339208585E-16 1.5196817514517839E-15
rhumerus -30.39855571347963 -20.453058328680264 -77.50325345003587
rradius 27.28204809987416
rwrist 1.948367393533382
rhand -18.86605897743055 23.404799707330895
rfingers 7.125020000000021
rthumb 7.4336516019197525 -6.479149345851354
lclavicle -2.568286859307218E-15 1.9356546376302194E-15
lhumerus -34.561486638138334 -1.256521927850761 84.7959164689095
lradius 28.522910572813572
lwrist 6.751641805897632
lhand -27.27495214540308 23.728086593793797
lfingers 7.12502000000002
lthumb -0.6782293537873905 53.70867579988126
rfemur -1.2330298528972925 8.393232927322954 36.4818232634674
rtibia 32.192041406423634
rfoot -21.729059907912987 -7.428647578251423
rtoes 8.751172201929629
lfemur -25.480018219954978 4.825397181914394 -13.901207328054078
ltibia 62.18682262011595
lfoot -1.7932324057628755 -6.190585752949541
ltoes -0.8114291087484453
129
root 0 0 0 -1.7498366483179126 -5.033343647016773 -7.115538177313585
lowerback 11.650102001610104 1.773375869355748 6.481964973734782
upperback 0.6435588047089279 3.279324238866601 2.2575064065080737
thorax -5.635404710635016 1.4848651513335949 -1.771677478906827
lowerneck -17.418480975347165 -3.56649050670283 -1.5112405993725062
upperneck 20.461552459702418 -4.542924927190702 0.16867434170862872
head 9.432891793076184 -2.218657019113102 -0.2802869641238673
rclavicle 1.6099205157592694E-15 9.272467072325188E-16
rhumerus -28.56946233374277 -18.048295788071066 -78.00521003603825
rradius 29.05084067468404
rwrist 0.5870473125681093
rhand -19.177132299795375 24.296919319013973
rfingers 7.125020000000017
rthumb 7.135743786959905 -5.598148234249972
lclavicle -1.799421044685497E-15 1.5030639240944237E-15
lhumerus -35.07732100945423 -0.9659670762039344 84.98581122759535
lradius 28.23801685927547
lwrist 6.706767039890911
lhand -27.291940053766524 23.71934190149329
lfingers 7.125020000000015
lthumb -0.6942017746962419 53.70819037306961
rfemur 0.23240548832891506 8.425241977735901 36.639526739190984
rtibia 31.793034697552546
rfoot -22.141725059276013 -7.665790337108483
rtoes 7.843408248288702
lfemur -30.724877709904906 0.4376783148350496 -10.328605550161587
ltibia 33.66351206384219
lfoot -6.911898511300187 3.28490280243864
ltoes -6.289761685985926
